<?xml version="1.0" encoding="utf-8"?>
<!-- Generator: Adobe Illustrator 22.0.1, SVG Export Plug-In . SVG Version: 6.00 Build 0)  -->
<svg version="1.1" id="Capa_1" xmlns="http://www.w3.org/2000/svg" xmlns:xlink="http://www.w3.org/1999/xlink" x="0px" y="0px"
	 viewBox="0 0 512 512" style="enable-background:new 0 0 512 512;" xml:space="preserve">
<path d="M414,0H98C44,0,0,44,0,98v316c0,54,44,98,98,98h158c5.5,0,10-4.5,10-10v-77.5l0-80.5v-38.5c0-5.5-4.5-10-10-10h-49v-51h49
	c5.5,0,10-4.5,10-10v-52c0-22.5,7.2-74.9,74.2-74.9h64.5v49.7H358c-12.9,0-28,7.7-28,29.3V234c0,5.5,4.5,10,10,10h64.1l-5.2,51.5
	H340c-5.5,0-10,4.5-10,10V502c0,5.5,4.5,10,10,10h74c54,0,98-44,98-98V98C512,44,468,0,414,0z M492,414c0,43-35,78-78,78h-64V315.5
	h58c5.1,0,9.4-3.9,10-9l7.2-71.5c0.3-2.8-0.6-5.6-2.5-7.7s-4.6-3.3-7.4-3.3H350v-37.5c0-6.8,2.2-9.3,8-9.3h56.7c5.5,0,10-4.5,10-10
	V97.5c0-5.5-4.5-10-10-10h-74.5c-42.2,0-64.6,18.5-76,34.1c-15.9,21.8-18.2,47.5-18.2,60.8v42h-49c-5.5,0-10,4.5-10,10v71
	c0,5.5,4.5,10,10,10h49V344l0,80.5V492H98c-43,0-78-35-78-78V98c0-43,35-78,78-78h316c43,0,78,35,78,78V414z"/>
</svg>
