<?xml version="1.0" encoding="utf-8"?>
<!-- Generator: Adobe Illustrator 19.1.0, SVG Export Plug-In . SVG Version: 6.00 Build 0)  -->
<svg version="1.1" id="Capa_1" xmlns="http://www.w3.org/2000/svg" xmlns:xlink="http://www.w3.org/1999/xlink" x="0px" y="0px"
	 viewBox="-140 263.2 314.7 314.7" style="enable-background:new -140 263.2 314.7 314.7;" xml:space="preserve">
<style type="text/css">
	.st0{fill:#414042;}
</style>
<g>
	<path class="st0" d="M17.3,263.2c-86.8,0-157.3,70.6-157.3,157.3s70.6,157.3,157.3,157.3s157.3-70.6,157.3-157.3
		S104.1,263.2,17.3,263.2z M17.3,559.9c-76.8,0-139.3-62.5-139.3-139.3s62.5-139.3,139.3-139.3s139.3,62.5,139.3,139.3
		S94.1,559.9,17.3,559.9z"/>
	<path class="st0" d="M60.5,339.9c-34.4-26.4-81.8-22.5-105.6,8.6c-18,23.6-17.9,57.4,0.4,84.3c2.8,4.1,8.4,5.2,12.5,2.4
		c4.1-2.8,5.2-8.4,2.4-12.5c-13.9-20.4-14.3-45.8-1-63.2c17.8-23.2,53.8-25.5,80.4-5.2c26.6,20.3,33.7,55.7,16,79
		c-13.7,17.9-38.7,23.8-62.2,15.2L15,392.9c1-4.9-2.1-9.6-7-10.7c-4.9-1-9.6,2.1-10.7,7l-24,114c-1,4.9,2.1,9.6,7,10.7
		c0.6,0.1,1.2,0.2,1.9,0.2c4.2,0,7.9-2.9,8.8-7.1l8.6-40.8c8.4,2.8,17,4.2,25.3,4.2c21.6,0,41.9-9.1,54.9-26.2
		C103.6,413,94.9,366.2,60.5,339.9z"/>
</g>
</svg>
